<?xml version="1.0" encoding="UTF-8"?>
<svg id="Capa_1" data-name="Capa 1" xmlns="http://www.w3.org/2000/svg" viewBox="0 0 134.1 154.91">
  <defs>
    <style>
      .cls-1 {
        fill: #0069ff;
      }
    </style>
  </defs>
  <path class="cls-1" d="M126.1,38.71L81.6,4.31c-8.1-6.2-21.8-5.4-29.4.4L7.7,39.01c-4.7,3.7-7.7,11.3-7.7,17.1v43.2c0,5.8,3.1,12.8,7.8,16.4l44.6,34.3c8.7,6.7,21,6.5,29.9-.4l44.7-34.5c4.4-3.4,7.1-10.5,7.1-16v-43.5c0-6.1-3-13.2-7.9-17h-.1v.1ZM109,109.21l-17.6,13.4-42.1-31.2c-3.8-2.8-8.8-1.2-10.9,2.1-2.3,3.5-1.5,7.9,2,10.6l38,28.6c-7.6,5.3-17,4.3-24.2-1.2l-29-22.3c-6.1-4.7-10.3-10.9-9.3-18.8l43.4-33c3.7-2.8,4.6-7.5,2-11-2.8-3.8-7.6-4.2-11.4-1.4l-34.1,25.4v-10c0-6.7,4.2-11.5,9.1-15.3l30.8-23.5c6.7-5.2,16.3-5,22.9,0l9.9,7.6v54.8c0,4.1,4.8,6.5,7.9,6.4,3.9,0,7.7-3.1,7.7-7.4v-41.7l7.6,5.9c4.1,3.2,6.7,8.7,6.7,14.1v31.5c-.2,7.1-3.9,12.3-9.3,16.4h-.1Z"/>
</svg>